# xmcd CD database file
#
# Track frame offsets:
#	150
#	26890
#	45707
#	70453
#	98398
#	122858
#	143867
#	161530
#
# Disc length: 2620 seconds
#
# Revision: 0
# Processed by: cddbd v1.5.2PL0 Copyright (c) Steve Scherf et al.
# Submitted via: CDex 1.70beta2
#
DISCID=6c0a3a08
DTITLE=Tricorn - Tricorn
DYEAR=2009
DGENRE=Stoner
TTITLE0=Step Outside 
TTITLE1=Give Me Some More
TTITLE2=Therapist
TTITLE3=Where Did It Go
TTITLE4=Life Again
TTITLE5=Crawl
TTITLE6=Girl Let's Ride
TTITLE7=Momentum
EXTD=YEAR: 2009
EXTT0=
EXTT1=
EXTT2=
EXTT3=
EXTT4=
EXTT5=
EXTT6=
EXTT7=
PLAYORDER=
